<svg width="16" height="7" viewBox="0 0 16 7" fill="none" xmlns="http://www.w3.org/2000/svg">
<path d="M13.6667 6.33334H2.33341C1.8915 6.33299 1.46778 6.15728 1.15529 5.8448C0.842809 5.53231 0.667101 5.1086 0.666748 4.66668V2.00001C0.667101 1.55809 0.842809 1.13437 1.15529 0.821889C1.46778 0.509404 1.8915 0.333697 2.33341 0.333344H13.6667C14.1087 0.333697 14.5324 0.509404 14.8449 0.821889C15.1574 1.13437 15.3331 1.55809 15.3334 2.00001V4.66668C15.3331 5.1086 15.1574 5.53231 14.8449 5.8448C14.5324 6.15728 14.1087 6.33299 13.6667 6.33334ZM2.33341 1.00001C2.06831 1.00036 1.81416 1.10583 1.6267 1.29329C1.43924 1.48075 1.33377 1.7349 1.33341 2.00001V4.66668C1.33377 4.93179 1.43924 5.18593 1.6267 5.37339C1.81416 5.56085 2.06831 5.66632 2.33341 5.66668H13.6667C13.9319 5.66632 14.186 5.56085 14.3735 5.37339C14.5609 5.18593 14.6664 4.93179 14.6667 4.66668V2.00001C14.6664 1.7349 14.5609 1.48075 14.3735 1.29329C14.186 1.10583 13.9319 1.00036 13.6667 1.00001H2.33341ZM11.3334 3.00001H4.66675V3.66668H11.3334V3.00001Z" fill="#323232"/>
</svg>
