<svg width="14" height="14" viewBox="0 0 14 14" fill="none" xmlns="http://www.w3.org/2000/svg">
<path d="M5.66658 7.66666H0.999919C0.823108 7.66666 0.653538 7.7369 0.528514 7.86192C0.40349 7.98695 0.333252 8.15652 0.333252 8.33333V13C0.333252 13.1768 0.40349 13.3464 0.528514 13.4714C0.653538 13.5964 0.823108 13.6667 0.999919 13.6667H5.66658C5.8434 13.6667 6.01297 13.5964 6.13799 13.4714C6.26301 13.3464 6.33325 13.1768 6.33325 13V8.33333C6.33325 8.15652 6.26301 7.98695 6.13799 7.86192C6.01297 7.7369 5.8434 7.66666 5.66658 7.66666ZM4.99992 12.3333H1.66659V8.99999H4.99992V12.3333ZM12.9999 0.333328H8.33325C8.15644 0.333328 7.98687 0.403566 7.86185 0.52859C7.73682 0.653615 7.66658 0.823184 7.66658 0.999995V5.66666C7.66658 5.84347 7.73682 6.01304 7.86185 6.13807C7.98687 6.26309 8.15644 6.33333 8.33325 6.33333H12.9999C13.1767 6.33333 13.3463 6.26309 13.4713 6.13807C13.5963 6.01304 13.6666 5.84347 13.6666 5.66666V0.999995C13.6666 0.823184 13.5963 0.653615 13.4713 0.52859C13.3463 0.403566 13.1767 0.333328 12.9999 0.333328ZM12.3333 4.99999H8.99992V1.66666H12.3333V4.99999ZM12.9999 7.66666H8.33325C8.15644 7.66666 7.98687 7.7369 7.86185 7.86192C7.73682 7.98695 7.66658 8.15652 7.66658 8.33333V13C7.66658 13.1768 7.73682 13.3464 7.86185 13.4714C7.98687 13.5964 8.15644 13.6667 8.33325 13.6667H12.9999C13.1767 13.6667 13.3463 13.5964 13.4713 13.4714C13.5963 13.3464 13.6666 13.1768 13.6666 13V8.33333C13.6666 8.15652 13.5963 7.98695 13.4713 7.86192C13.3463 7.7369 13.1767 7.66666 12.9999 7.66666ZM12.3333 12.3333H8.99992V8.99999H12.3333V12.3333ZM5.66658 0.333328H0.999919C0.823108 0.333328 0.653538 0.403566 0.528514 0.52859C0.40349 0.653615 0.333252 0.823184 0.333252 0.999995V5.66666C0.333252 5.84347 0.40349 6.01304 0.528514 6.13807C0.653538 6.26309 0.823108 6.33333 0.999919 6.33333H5.66658C5.8434 6.33333 6.01297 6.26309 6.13799 6.13807C6.26301 6.01304 6.33325 5.84347 6.33325 5.66666V0.999995C6.33325 0.823184 6.26301 0.653615 6.13799 0.52859C6.01297 0.403566 5.8434 0.333328 5.66658 0.333328ZM4.99992 4.99999H1.66659V1.66666H4.99992V4.99999Z" fill="#323232"/>
</svg>
