<svg width="21" height="21" viewBox="0 0 21 21" fill="none" xmlns="http://www.w3.org/2000/svg">
<path d="M20.5 19.5L20.5 1.5C20.5 1.23478 20.3946 0.98043 20.2071 0.792893C20.0196 0.605357 19.7652 0.5 19.5 0.5L1.5 0.499999C1.23478 0.499999 0.980429 0.605356 0.792892 0.792892C0.605356 0.980429 0.5 1.23478 0.5 1.5L0.499999 19.5C0.499999 19.7652 0.605355 20.0196 0.792892 20.2071C0.980428 20.3946 1.23478 20.5 1.5 20.5L19.5 20.5C19.7652 20.5 20.0196 20.3946 20.2071 20.2071C20.3946 20.0196 20.5 19.7652 20.5 19.5ZM2.5 6.5L2.5 2.5L18.5 2.5L18.5 6.5L2.5 6.5ZM2.5 12.5L2.5 8.5L18.5 8.5L18.5 12.5L2.5 12.5ZM2.5 18.5L2.5 14.5L18.5 14.5L18.5 18.5L2.5 18.5Z" fill="black"/>
</svg>
