<svg width="14" height="14" viewBox="0 0 14 14" fill="none" xmlns="http://www.w3.org/2000/svg">
<path d="M2.33325 11H5.15992C5.24766 11.0005 5.33463 10.9837 5.41586 10.9505C5.49708 10.9173 5.57096 10.8685 5.63325 10.8067L10.2466 6.18667L12.1399 4.33333C12.2024 4.27136 12.252 4.19762 12.2858 4.11638C12.3197 4.03515 12.3371 3.94801 12.3371 3.86C12.3371 3.77199 12.3197 3.68485 12.2858 3.60362C12.252 3.52238 12.2024 3.44864 12.1399 3.38667L9.31325 0.526667C9.25128 0.464181 9.17754 0.414585 9.0963 0.380739C9.01506 0.346893 8.92793 0.329468 8.83992 0.329468C8.75191 0.329468 8.66477 0.346893 8.58353 0.380739C8.50229 0.414585 8.42856 0.464181 8.36658 0.526667L6.48658 2.41333L1.85992 7.03333C1.79813 7.09563 1.74925 7.1695 1.71607 7.25073C1.68289 7.33195 1.66608 7.41893 1.66659 7.50667V10.3333C1.66659 10.5101 1.73682 10.6797 1.86185 10.8047C1.98687 10.9298 2.15644 11 2.33325 11ZM8.83992 1.94L10.7266 3.82667L9.77992 4.77333L7.89325 2.88667L8.83992 1.94ZM2.99992 7.78L6.95325 3.82667L8.83992 5.71333L4.88658 9.66667H2.99992V7.78ZM12.9999 12.3333H0.999919C0.823108 12.3333 0.653538 12.4036 0.528514 12.5286C0.40349 12.6536 0.333252 12.8232 0.333252 13C0.333252 13.1768 0.40349 13.3464 0.528514 13.4714C0.653538 13.5964 0.823108 13.6667 0.999919 13.6667H12.9999C13.1767 13.6667 13.3463 13.5964 13.4713 13.4714C13.5963 13.3464 13.6666 13.1768 13.6666 13C13.6666 12.8232 13.5963 12.6536 13.4713 12.5286C13.3463 12.4036 13.1767 12.3333 12.9999 12.3333Z" fill="#323232"/>
</svg>
