<svg width="14" height="12" viewBox="0 0 14 12" fill="none" xmlns="http://www.w3.org/2000/svg">
<path d="M11.6666 0.666672H2.33325C1.80282 0.666672 1.29411 0.877385 0.919038 1.25246C0.543966 1.62753 0.333252 2.13624 0.333252 2.66667V9.33334C0.333252 9.86377 0.543966 10.3725 0.919038 10.7476C1.29411 11.1226 1.80282 11.3333 2.33325 11.3333H11.6666C12.197 11.3333 12.7057 11.1226 13.0808 10.7476C13.4559 10.3725 13.6666 9.86377 13.6666 9.33334V2.66667C13.6666 2.13624 13.4559 1.62753 13.0808 1.25246C12.7057 0.877385 12.197 0.666672 11.6666 0.666672ZM2.33325 10C2.15644 10 1.98687 9.92977 1.86185 9.80474C1.73682 9.67972 1.66659 9.51015 1.66659 9.33334V7.72001L3.86659 5.52667C3.9912 5.40452 4.15875 5.3361 4.33325 5.3361C4.50775 5.3361 4.6753 5.40452 4.79992 5.52667L9.27325 10H2.33325ZM12.3333 9.33334C12.3333 9.51015 12.263 9.67972 12.138 9.80474C12.013 9.92977 11.8434 10 11.6666 10H11.1533L8.61325 7.44667L9.19992 6.86001C9.32454 6.73785 9.49208 6.66943 9.66658 6.66943C9.84109 6.66943 10.0086 6.73785 10.1333 6.86001L12.3333 9.05334V9.33334ZM12.3333 7.17334L11.0799 5.92667C10.7 5.56163 10.1935 5.35776 9.66658 5.35776C9.13968 5.35776 8.63321 5.56163 8.25325 5.92667L7.66658 6.51334L5.74658 4.59334C5.36662 4.22829 4.86016 4.02442 4.33325 4.02442C3.80635 4.02442 3.29988 4.22829 2.91992 4.59334L1.66659 5.84001V2.66667C1.66659 2.48986 1.73682 2.32029 1.86185 2.19527C1.98687 2.07024 2.15644 2.00001 2.33325 2.00001H11.6666C11.8434 2.00001 12.013 2.07024 12.138 2.19527C12.263 2.32029 12.3333 2.48986 12.3333 2.66667V7.17334Z" fill="#323232"/>
</svg>
