<svg width="8" height="8" viewBox="0 0 8 8" fill="none" xmlns="http://www.w3.org/2000/svg">
<path d="M7.33333 0H0.666667C0.489856 0 0.320287 0.070238 0.195262 0.195262C0.070238 0.320287 0 0.489856 0 0.666667C0 0.843478 0.070238 1.01305 0.195262 1.13807C0.320287 1.2631 0.489856 1.33333 0.666667 1.33333H3.33333V7.33333C3.33333 7.51014 3.40357 7.67971 3.5286 7.80474C3.65362 7.92976 3.82319 8 4 8C4.17681 8 4.34638 7.92976 4.4714 7.80474C4.59643 7.67971 4.66667 7.51014 4.66667 7.33333V1.33333H7.33333C7.51014 1.33333 7.67971 1.2631 7.80474 1.13807C7.92976 1.01305 8 0.843478 8 0.666667C8 0.489856 7.92976 0.320287 7.80474 0.195262C7.67971 0.070238 7.51014 0 7.33333 0Z" fill="#323232"/>
</svg>
