<svg width="12" height="12" viewBox="0 0 12 12" fill="none" xmlns="http://www.w3.org/2000/svg">
                        <path d="M10.6667 8.66666H10.0001V2.66666C10.0001 2.48985 9.92984 2.32028 9.80482 2.19526C9.6798 2.07024 9.51023 2 9.33342 2H3.33341V1.33333C3.33341 1.15652 3.26318 0.986951 3.13815 0.861926C3.01313 0.736902 2.84356 0.666664 2.66675 0.666664C2.48994 0.666664 2.32037 0.736902 2.19534 0.861926C2.07032 0.986951 2.00008 1.15652 2.00008 1.33333V2H1.33341C1.1566 2 0.987035 2.07024 0.86201 2.19526C0.736986 2.32028 0.666748 2.48985 0.666748 2.66666C0.666748 2.84348 0.736986 3.01304 0.86201 3.13807C0.987035 3.26309 1.1566 3.33333 1.33341 3.33333H2.00008V9.33333C2.00008 9.51014 2.07032 9.67971 2.19534 9.80474C2.32037 9.92976 2.48994 10 2.66675 10H8.66675V10.6667C8.66675 10.8435 8.73699 11.013 8.86201 11.1381C8.98703 11.2631 9.1566 11.3333 9.33342 11.3333C9.51023 11.3333 9.6798 11.2631 9.80482 11.1381C9.92984 11.013 10.0001 10.8435 10.0001 10.6667V10H10.6667C10.8436 10 11.0131 9.92976 11.1382 9.80474C11.2632 9.67971 11.3334 9.51014 11.3334 9.33333C11.3334 9.15652 11.2632 8.98695 11.1382 8.86193C11.0131 8.7369 10.8436 8.66666 10.6667 8.66666ZM8.66675 8.66666H3.33341V3.33333H8.66675V8.66666Z" fill="#323232"/>
                    </svg>