<svg width="21" height="21" viewBox="0 0 21 21" fill="none" xmlns="http://www.w3.org/2000/svg">
<path d="M19.5 0.5H1.5C1.23478 0.5 0.98043 0.605357 0.792893 0.792893C0.605357 0.98043 0.5 1.23478 0.5 1.5V19.5C0.5 19.7652 0.605357 20.0196 0.792893 20.2071C0.98043 20.3946 1.23478 20.5 1.5 20.5H19.5C19.7652 20.5 20.0196 20.3946 20.2071 20.2071C20.3946 20.0196 20.5 19.7652 20.5 19.5V1.5C20.5 1.23478 20.3946 0.98043 20.2071 0.792893C20.0196 0.605357 19.7652 0.5 19.5 0.5ZM9.5 18.5H2.5V2.5H9.5V18.5ZM18.5 18.5H11.5V2.5H18.5V18.5Z" fill="black"/>
</svg>
